# xmcd
#
# Track frame offsets: 
#        150
#        28995
#        50277
#        71052
#        86788
#        109520
#        135836
#        159081
#        175074
#        204849
#
# Disc length: 3071 seconds
#
# Revision: 0
# Processed by: cddbd v1.5.2PL0 Copyright (c) Steve Scherf et al.
# Submitted via: ExactAudioCopy v0.99pb4
#
DISCID=770bfd0a
DTITLE=Howard Johnson - Doin' It My Way
DYEAR=1983
DGENRE=R&B
TTITLE0=My Way
TTITLE1=Jump Into Fire
TTITLE2=Let's Take Time Out
TTITLE3=Missing You
TTITLE4=Much Too Much
TTITLE5=You're The One I've Needed
TTITLE6=Let This Dream Be Real
TTITLE7=Everywhere I Go
TTITLE8=Let This Dream Be Real (Remix)
TTITLE9=Let's Take Time Out (Long Version)
EXTD=
EXTT0=
EXTT1=
EXTT2=
EXTT3=
EXTT4=
EXTT5=
EXTT6=
EXTT7=
EXTT8=
EXTT9=
PLAYORDER=
